HIERARCHY
ROOT Hips
{
 OFFSET 0.000000 0.000000 0.000000
 CHANNELS 6 Xposition Yposition Zposition Yrotation Xrotation Zrotation
 JOINT Chest
 {
  OFFSET 0.000000 9.585900 0.002600
  CHANNELS 3 Yrotation Xrotation Zrotation
  JOINT Chest2
  {
   OFFSET 0.000000 9.601200 -0.005300
   CHANNELS 3 Yrotation Xrotation Zrotation
   JOINT Chest3
   {
    OFFSET 0.000000 9.561800 0.000000
    CHANNELS 3 Yrotation Xrotation Zrotation
    JOINT Chest4
    {
     OFFSET 0.000000 9.552100 0.000000
     CHANNELS 3 Yrotation Xrotation Zrotation
     JOINT Neck
     {
      OFFSET 0.000000 14.453000 0.000000
      CHANNELS 3 Yrotation Xrotation Zrotation
      JOINT Head
      {
       OFFSET 0.000000 8.936500 -0.011300
       CHANNELS 3 Yrotation Xrotation Zrotation
       End Site
       {
        OFFSET 0.000000 17.073600 -0.006000
       }
      }
     }
     JOINT RightCollar
     {
      OFFSET -2.921100 9.558500 0.000000
      CHANNELS 3 Yrotation Xrotation Zrotation
      JOINT RightShoulder
      {
       OFFSET -13.519700 0.000000 0.000000
       CHANNELS 3 Yrotation Xrotation Zrotation
       JOINT RightElbow
       {
        OFFSET 0.000000 -29.696600 0.000000
        CHANNELS 3 Yrotation Xrotation Zrotation
        JOINT RightWrist
        {
         OFFSET 0.000000 -24.004700 0.000000
         CHANNELS 3 Yrotation Xrotation Zrotation
         End Site
         {
          OFFSET 0.000000 -17.728500 0.000000
         }
        }
       }
      }
     }
     JOINT LeftCollar
     {
      OFFSET 2.921100 9.558500 0.000000
      CHANNELS 3 Yrotation Xrotation Zrotation
      JOINT LeftShoulder
      {
       OFFSET 13.519700 0.000000 0.000000
       CHANNELS 3 Yrotation Xrotation Zrotation
       JOINT LeftElbow
       {
        OFFSET 0.000000 -29.696600 0.000000
        CHANNELS 3 Yrotation Xrotation Zrotation
        JOINT LeftWrist
        {
         OFFSET 0.000000 -24.004700 0.000000
         CHANNELS 3 Yrotation Xrotation Zrotation
         End Site
         {
          OFFSET 0.000000 -17.728500 0.000000
         }
        }
       }
      }
     }
    }
   }
  }
 }
 JOINT RightHip
 {
  OFFSET -7.771700 -0.012900 -0.001300
  CHANNELS 3 Yrotation Xrotation Zrotation
  JOINT RightKnee
  {
   OFFSET 0.000000 -40.869800 0.001200
   CHANNELS 3 Yrotation Xrotation Zrotation
   JOINT RightAnkle
   {
    OFFSET 0.000000 -39.717900 0.002100
    CHANNELS 3 Yrotation Xrotation Zrotation
    JOINT RightToe
    {
     OFFSET 0.000000 -4.965400 11.033500
     CHANNELS 3 Yrotation Xrotation Zrotation
     End Site
     {
      OFFSET 0.000000 -1.423100 5.872300
     }
    }
   }
  }
 }
 JOINT LeftHip
 {
  OFFSET 7.771700 -0.012900 -0.001300
  CHANNELS 3 Yrotation Xrotation Zrotation
  JOINT LeftKnee
  {
   OFFSET 0.000000 -40.869800 0.001200
   CHANNELS 3 Yrotation Xrotation Zrotation
   JOINT LeftAnkle
   {
    OFFSET 0.000000 -39.717900 0.002100
    CHANNELS 3 Yrotation Xrotation Zrotation
    JOINT LeftToe
    {
     OFFSET 0.000000 -4.965400 11.033500
     CHANNELS 3 Yrotation Xrotation Zrotation
     End Site
     {
      OFFSET 0.000000 -1.423100 5.872300
     }
    }
   }
  }
 }
}
MOTION
Frames: 9
Frame Time: 0.008333
-212.033394 57.769028 131.739771 178.287368 -35.907661 -1.462739 0.571028 20.342220 1.968526 0.022070 2.578292 0.238111 0.050499 4.231118 0.394104 0.363179 17.455698 1.676619 -0.422967 22.273813 -0.220223 -0.721635 5.550200 -0.289074 5.288743 -1.814745 -1.297893 21.733682 -32.352511 -24.239426 175.369153 -50.494730 -149.242927 15.838349 -14.808037 -53.131256 -7.634547 -5.686210 -2.362510 -4.369981 -29.605773 2.853570 141.925493 -62.223868 -175.365292 -10.726564 -6.158217 13.383101 5.262777 -39.323457 -2.610716 -11.381009 68.510704 -15.758653 -8.220904 23.780493 -6.962111 -2.128218 -15.556567 15.794766 -7.512519 -38.032860 2.768971 31.017770 69.758271 31.924810 -14.952303 4.461871 -4.741626 -0.075365 0.047761 -0.035635
-212.042460 57.753854 131.756324 178.229044 -35.915844 -1.435984 0.629903 20.353593 1.981394 0.034158 2.579193 0.239679 0.042703 4.226126 0.393343 0.376729 17.465374 1.688941 -0.443289 22.233468 -0.231586 -0.724065 5.457621 -0.309298 5.263262 -1.818821 -1.301752 21.708602 -32.318553 -24.154893 175.388764 -50.510798 -149.255765 15.837462 -14.833068 -53.145086 -7.664187 -5.689452 -2.352799 -4.389987 -29.608912 2.876609 141.632983 -62.287145 -175.147481 -10.752120 -6.057969 13.377400 5.383026 -39.357946 -2.609181 -11.389680 68.514787 -15.791992 -8.198834 23.943411 -6.935305 -2.152603 -15.669758 15.841308 -7.468509 -38.025422 2.764493 31.019911 69.743067 31.938063 -14.934569 4.436683 -4.745550 -0.080147 0.083766 -0.039386
-212.052326 57.738250 131.772375 178.214588 -35.930800 -1.432095 0.654740 20.368818 1.991219 0.030758 2.577019 0.238826 0.056958 4.218899 0.392065 0.387190 17.461083 1.694533 -0.467462 22.234795 -0.226243 -0.719968 5.343159 -0.332571 5.225549 -1.784402 -1.288837 21.690874 -32.312900 -24.085683 175.435778 -50.544843 -149.295672 15.840422 -14.870222 -53.184966 -7.695448 -5.672797 -2.340478 -4.414951 -29.610632 2.900367 141.300562 -62.358463 -174.903097 -10.790755 -5.941038 13.377942 5.429803 -39.370074 -2.599144 -11.353454 68.502148 -15.803787 -8.156375 24.062917 -6.879497 -2.184623 -15.735903 15.861650 -7.457039 -38.011418 2.759540 31.020463 69.730334 31.944472 -14.945578 4.418919 -4.757772 -0.071951 0.109084 -0.032912
-212.063992 57.721515 131.788794 178.197580 -35.947032 -1.420563 0.717325 20.365707 1.997892 -0.006850 2.591451 0.247111 0.081677 4.204178 0.386699 0.404577 17.453286 1.700217 -0.486771 22.207840 -0.218402 -0.728197 5.266092 -0.337510 5.171073 -1.713690 -1.257428 21.684049 -32.335556 -24.039599 175.497012 -50.583751 -149.359573 15.848686 -14.915852 -53.258833 -7.743850 -5.642469 -2.318362 -4.421423 -29.614703 2.903441 140.945393 -62.438137 -174.656489 -10.840447 -5.804277 13.378261 5.482424 -39.381267 -2.596069 -11.349153 68.484493 -15.850355 -8.107046 24.186341 -6.816191 -2.214913 -15.802117 15.877329 -7.442150 -37.997110 2.748140 31.022429 69.719080 31.945230 -14.950092 4.401654 -4.765284 -0.070583 0.135894 -0.026954
-212.077726 57.701134 131.809045 178.158180 -35.939659 -1.391688 0.784104 20.341962 1.995102 0.029683 2.572096 0.240536 0.054457 4.214526 0.395112 0.427929 17.443161 1.705074 -0.503830 22.177782 -0.205800 -0.745748 5.196889 -0.327775 5.108015 -1.663002 -1.224005 21.662381 -32.339949 -23.964414 175.552301 -50.623022 -149.426609 15.856608 -14.967719 -53.356657 -7.808904 -5.601208 -2.267953 -4.453137 -29.624218 2.921440 140.590163 -62.511559 -174.370354 -10.894096 -5.642829 13.363638 5.632689 -39.463863 -2.613812 -11.540398 68.504385 -16.057618 -8.078677 24.371080 -6.763391 -2.226002 -15.927682 15.907248 -7.412622 -38.008725 2.736639 31.025741 69.711425 31.943613 -14.954068 4.381262 -4.767181 -0.062812 0.165242 -0.025285
-212.091787 57.680714 131.828301 178.057461 -35.945863 -1.334817 0.908600 20.330546 2.001089 0.033602 2.568339 0.240308 0.060803 4.208612 0.394908 0.455039 17.432140 1.708536 -0.520192 22.142799 -0.191151 -0.766595 5.133154 -0.307301 5.040250 -1.612620 -1.185027 21.651863 -32.352302 -23.928719 175.644309 -50.680165 -149.559980 15.855225 -15.025837 -53.457355 -7.881220 -5.563324 -2.232179 -4.551540 -29.630113 3.000374 140.264646 -62.586523 -174.058569 -10.950965 -5.457333 13.305205 5.777801 -39.520284 -2.611467 -11.659092 68.505771 -16.218537 -8.016901 24.569068 -6.697923 -2.275934 -16.055767 15.935309 -7.339333 -38.010250 2.737295 31.038164 69.710373 31.949689 -14.949549 4.332720 -4.766236 -0.059288 0.220016 -0.024942
-212.107312 57.660706 131.845943 178.043306 -35.967073 -1.331813 0.944514 20.343891 2.009056 0.057971 2.560416 0.234809 0.067321 4.202988 0.394519 0.482988 17.421648 1.711397 -0.499663 22.055971 -0.197817 -0.817471 5.117192 -0.247576 4.974792 -1.566632 -1.143042 21.625312 -32.355660 -23.816205 175.668465 -50.721619 -149.595333 15.826834 -15.087914 -53.518787 -7.955480 -5.529858 -2.193972 -4.562972 -29.631938 3.006130 139.930156 -62.678403 -173.811121 -11.019679 -5.247481 13.174056 5.824088 -39.553641 -2.611137 -11.729053 68.523482 -16.309521 -7.976572 24.678919 -6.678067 -2.279717 -16.131244 15.960686 -7.335159 -37.996336 2.741148 31.051347 69.707220 31.953528 -14.961278 4.312069 -4.770459 -0.045309 0.250113 -0.018419
-212.128450 57.635757 131.869245 177.989015 -35.950346 -1.286032 1.005409 20.319194 1.996052 0.059099 2.560846 0.235214 0.070528 4.200357 0.394324 0.526540 17.405006 1.706817 -0.498314 22.001437 -0.192339 -0.848192 5.063337 -0.211228 4.917328 -1.526415 -1.104373 21.602012 -32.361814 -23.700592 175.697906 -50.767702 -149.627161 15.759432 -15.136630 -53.504312 -8.018698 -5.501409 -2.157550 -4.629263 -29.636969 3.044219 139.647229 -62.767276 -173.558020 -11.112738 -4.995940 12.976252 5.909110 -39.620692 -2.624957 -11.816951 68.500811 -16.476237 -7.868813 24.834470 -6.558252 -2.282814 -16.216642 15.940467 -7.284827 -38.021381 2.724826 31.073445 69.692872 31.966025 -14.988886 4.293728 -4.784550 -0.024879 0.283044 -0.002269
-212.149244 57.612649 131.889428 177.970915 -35.960639 -1.275895 1.096061 20.309265 2.008404 0.009647 2.574457 0.245141 0.073621 4.197927 0.394190 0.562040 17.383333 1.703747 -0.507152 21.964130 -0.181725 -0.867013 4.994176 -0.189404 4.868430 -1.484964 -1.071381 21.590333 -32.373946 -23.658531 175.803661 -50.822177 -149.757976 15.683009 -15.147664 -53.431517 -8.075518 -5.471433 -2.128745 -4.686030 -29.643062 3.075079 139.402231 -62.857142 -173.343042 -11.234629 -4.687400 12.734664 5.941716 -39.666143 -2.626620 -11.865066 68.505794 -16.575507 -7.792871 24.975495 -6.508821 -2.324344 -16.300780 15.966053 -7.281126 -38.020664 2.729338 31.100517 69.688142 31.976776 -15.013480 4.272265 -4.793065 -0.000094 0.315212 0.008439
